<?xml version="1.0" encoding="utf-8"?>
<!-- Generator: Adobe Illustrator 24.3.0, SVG Export Plug-In . SVG Version: 6.00 Build 0)  -->
<svg version="1.1" id="Layer_1" xmlns="http://www.w3.org/2000/svg" xmlns:xlink="http://www.w3.org/1999/xlink" x="0px" y="0px"
	 viewBox="0 0 956.5 1216.2" style="enable-background:new 0 0 956.5 1216.2;" xml:space="preserve">
<style type="text/css">
	.st0{fill:#F9F9F9;}
</style>
<path class="st0" d="M923.9,796.4c-1-2.8-3.1-4.8-5-6.9c-3.1-2.3-6.5-1-9.9-0.9l0,0c-10.9,1.4-21.7-1.6-32.5-1.1
	c-1.7,0.1-3.3-0.3-4.8-1.1c-9.4-4.6-19.9-5.7-29.4-10l0,0l-2.1-2l0,0l-2.2-3.8l-3.7-5.1c-0.6-2.9-2.9-4.5-5.1-6.2l0,0
	c-0.2-1-1-1.2-1.9-1.4l0,0c0.3-3.7-2.3-5.2-5-6.5c0.1-0.8-0.3-1.6-1-2c-0.6-1.5-1.9-2.1-3.2-2.9c-0.4-1.1-2.3-1.3-1.8-2.9
	c1.1-0.6,1.9-1.7,2.1-3l0,0c5.9-6.1,4.8-15.4-2.3-19.8c-1.3-0.7-2.6-1.5-3.9-2.2h-0.5l0,0c-2.5-1.8-5-1.2-7.5,0.2l0,0
	c-2.9,0-6,2.2-8.8-0.2c0.2-2.8-1.9-2.8-4.9-3.9l3.4,4.1l0,0c0.1,0.9,0.1,1.8,0.2,2.7c-2.8,1.4-4.9-0.3-7.1-1.7l0,0
	c-0.2-1-1-1.1-1.8-1.2l0,0c-1.3-2.6-3.7-4.2-5.8-6c-3.5-4.2-6.5-8.9-11.2-11.9l0,0l-0.8-1.2l-2.2-4c0.1-4.3,0.2-8.6-2.8-12.2l0,0
	c0.1-0.2,0-0.5-0.2-0.7c0-2.5-1.9-4-3-6c-0.1-3-1.7-5.5-3-8c-3.8-9.2-5.9-19.1-10.8-28l0,0c-1.3-5-4.7-8.6-8-12.2l0,0
	c0.3-8.8-0.8-17.3-6-24.8l0,0c-0.4-1.3-0.8-2.6-1.1-3.9c-1.5-9.5-6.1-18.2-12.9-25l-1.9-2c-0.4-3.3-3.4-4.6-5-7l0,0
	c-0.4-1.3-0.8-2.5-1.4-3.7c-3.4-6.7-6.8-13.4-10.4-20c-3.5-6.4-4.7-14-10.2-19.3c-1-2.7-2-5.3-3.1-7.9l0,0l-4-8
	c-5.5-7.7-8.5-16.7-12.8-25l0,0c-0.8-2.3-1.6-4.6-2.4-6.9l0,0c0.3-2-0.1-4.2,1.3-6l0,0c5.6-5.1,11.5-9.9,14.9-17l0,0
	c4.8-4.9,6.9-11.6,11-17c0.7-1.3,1.3-2.7,2-4c0.7-0.4,1.1-1.2,1-2l1-1c1.3-0.7,2.3-1.7,3-3l0,0c1.2-1,1.6-2.7,1-4.1l0,0
	c-0.1-1.1,0.1-2.3-1-3v-1l0,0c-0.7-8.1-6-13.9-11.1-19.1c-10.8-11-24.6-18-37.5-26.1c-6.8-4.2-15.1-5.7-22.2-9.7l-3-1l0,0l-7-2
	c-1.1-1.4-2.7-1.7-4.4-2.1c-7.4-1.6-14.9-3-21.6-6.9c-1-1.2-2.4-1.9-3.9-2.1l0,0c-1-1.4-2-3-4.1-3l0,0l-7-2l0,0l-13-6.8l0,0
	c-1.2-0.9-1.4-2.6-3-3.1c-0.3-1-1.2-0.9-2-1.1c-2.9-3.3-7.8-3.2-10.9-6l0,0c-0.4-1-1.2-0.9-2.1-0.8l0,0c-0.4-1.3-1.6-2.2-2.9-2.2
	c-1.1-2.2-3-2-5-1.9l0,0L538,320c-0.8-1.5-2.5-2.3-4.1-1.9l0,0c-5.3-4.5-10.9-8.6-17.9-10.1c-8-2.7-15.7-6.3-24-8.1l0,0
	c-0.3-0.3-0.7-0.6-1.2-0.8c-7.1-1.8-15.2-1.1-19.6-8.9c-0.4-0.7-2-0.8-3.1-1.2l0,0c-1.1-1-2.3-2.1-4-1.9l0,0c-2.3-0.6-4.5-1.5-7-1
	l0,0l-9-3.1l0,0c-3.4-4.1-8.1-5.7-13-6.9c-3.3-2.4-6.9-4.3-11-4.9c-0.8-0.8-1.8-1.2-2.9-1.2l0,0c-2.1-1.5-4.7-2.1-7.3-1.7l-2.6-1.3
	l-3-2c-1.6-1.6-4.1-2-6-0.8l0,0c-0.9-0.6-2-0.7-2.9-0.2l0,0l0.1-3.7l0,0l3.7-0.2l7,0.1l0,0c3.1,1,6.4,1.4,9.7,1.1
	c0.4,0.2,0.9,0.4,1.4,0.4c3.9,1,7.8,0.7,11.8,0.4l0,0c4.1,0.4,6.4-1.9,8.1-5.2c2.4-4.5,4.9-9,7.1-13.6c1.7-3.5,5.7-5.1,6.8-9
	c0.1,0,0.1,0,0.1-0.1c1.9-1.1,2.5-2.9,2.7-4.9l0,0c1.4-1.7,0.7-3.9,1.4-5.8c5.6-4.4,3.9-10.5,3.6-16.2c0.1-0.3,0.2-0.6,0.2-0.9
	c1.6-3.6,3.9-5.8,8.3-5.2c2.6,0.4,4.5-1.7,6.6-2.9l0,0c2.9-0.6,2.1-2.4,1.2-4.1c-1-2-2.3-4-3.1-6.1c-1.6-4.2-1.1-9.3-5.2-12.6
	c-1.1-0.9,0.3-2.1,0.1-3.3l0,0l0.1-1.9c1.6-2.5,0.5-5.6,1.8-8.2c0.1-3.3-2.5-1.3-3.8-1.9c0-0.7-0.1-1.3-0.1-2l0,0
	c0.8-2,0.4-4.3-0.9-5.9c-0.4-10.7,1.5-21.5-2.4-32c-1.4-3.7-0.8-7.8,1.5-10.9l0,0l1-1l0,0l1-0.9l0,0l4.9-2l0,0
	c6.1-0.6,9.6-4.4,11.8-9.8c2.3-5.7,1.9-11.4-0.1-17.1l0,0c-1.2-3-1.9-6.2-4.9-8.1c-1.7-0.9-2.9-2.7-5-3c-1-1.2-2.5-1.2-3.9-1.2l0,0
	c-3.8-1.3-7.8-2-11.8-2c-1.2-1.3-2.7-0.8-4.1-0.8l0,0c-1.8,0.1-3.5-0.3-5.1-1c-6.6-1.5-12.9-4.3-19.9-4l0,0c-1.7-0.7-3.1-2-5.1-1.9
	l-4.8-1.2l0,0c-4.3-2-8.7-0.5-13.1-0.8c-8.8-1.3-17-5-25.9-6l0,0c-0.2-1.9-2.2-1.1-3-2c-1.7-1.4-4.2-1.4-6-0.1c0,0-0.1,0-0.1,0.1
	l-1.9-0.1l0,0c-3.2-1.4-6.9-1.4-10.1,0l0,0c-1.1,0.1-2.4-0.2-3.2,1l0,0c-0.2,0-0.5,0-0.7,0.1c-1.9-0.4-2.7,1.3-3.9,2.1l0,0
	c-1.5,1.2-3.7,0.3-5.1,1.8l-1.8,1.3c-1.5-0.3-2.8-0.2-3.2,1.6l0,0l-4,5.1c-0.7,0.4-1.1,1.1-1.1,1.9c-1.4,1-2.4,2.6-2.7,4.3l0,0
	c-5.8,3-9.9,7.9-13.9,13l-6.3,9.8c-2.6,1.8-4.6,4.3-5.8,7.2c-1.5,1.9-3,3.9-4.3,6c-3.3,5.7-7.6,10.9-7.6,18
	c-0.2,0.2-0.3,0.5-0.2,0.7c0,0,0,0,0.1,0.1c-1.5,5.7-0.9,11.5-0.8,17.2c-0.7,11.6,0.5,23.1,1.5,34.6c0.4,4.9,0.5,9.9,3.3,14.2
	c2.3,7.7,4.6,15.3,6.9,23c1.5,6,0.1,11.6-2.9,16.9l-2.1,2.8l0,0c-1.3,0.9-2.1,2.4-2.2,4l0,0L290,254l-1.9,2.2c-1.5,0.2-3,1-4,2.1
	l-6.9,4.2c-4.2,4.2-10.1,6.2-14.1,10.7l-2.4,1.9c-1.9,0.1-2.7,1.7-3.7,2.9l-3.9,3.2l-8.1,5.7l0,0c-6.1,2-11.5,5.6-15.9,10.2l0,0
	c-3.3,2.4-6.1,5.4-8.3,8.9c-1.5,1-2.8,2.4-3.7,4c-6.4,6.9-15.1,11.9-18.9,21.1c-2.8,5.8-7.5,10.5-9,17c-2.2,4-2.6,8.5-3.4,12.9
	c-0.4,0.1-0.7,0.5-0.6,0.9c0,0.1,0.1,0.2,0.1,0.2c0,1.4-1.7,2.4-1,4c-2.1,6-2.8,12.2-3.6,18.4c-1.4,10.9-6.6,21.2-5.5,32.5
	c-1.2,4.8-2.5,9.7-1.9,14.7c2.1,17.2,2.3,34.6,7.4,51.5c3.8,12.6,4,26.1,8.4,38.7c2.7,3.5,2.6,8.3,5.1,12c0.1,2.5-0.3,5,0.9,7.3l0,0
	c0.1,1.5,0.1,3.1,0.2,4.7c0,0.7,0,1.3,0,2c-0.2,2.2,0.5,4.3,1.8,6.1c1.3,4.5-0.4,8.7-0.6,13.1c-0.9,15.5-3.6,31-1.5,46.6
	c0.5,3.9,1.1,8.1-1.1,11.7c-5.4,9.1-0.8,16.7,4.1,23.7c3,4.3,3.9,8.2,2.6,12.9c-1.3,4.3-3.3,8.3-6.1,11.8c-2.2,3-4.7,6-5.4,9.9l0,0
	l-4.1,8.8c-1.1,0.7-1.3,2.1-0.6,3.2c0.1,0.1,0.2,0.2,0.3,0.3c4.8,4.1,3.3,9.5,3.5,14.7s1.6,9.7,5.6,13c0.4,1.4,0.5,3.1,2.3,3.7
	c5.7,3.5,6.1,10.4,9.6,15.3c0.3,2.5,0.3,5.1,2.2,7.1l0,0c0.8,4.3,2.9,8,4.9,11.8c1,3.1,1.1,6.6,4.2,8.8c4.8,5.6,8.6,11.9,14.9,16
	c4.6,3.6,9.6,6.6,14.9,9.1c1,1.3,2.5,1.9,3.9,2.4l0,0c7.3,4,14.9,7.6,23,9.6l22,5.9l1.8,0.2c1.9,1.7,1.4,4.1,1,6.1
	c-1.5,7.2-1.5,14.4-1.8,21.7c-0.5,14,1.8,27.8,2.2,41.7c0.2,7.1-0.1,14.2,0.4,21.4c1.3,17.5,4.2,34.9,3.5,52.6
	c-0.2,6.3,1.2,12.8,1.8,19.1c0,6.3,0.1,12.6,0.1,18.9v1c-0.8,12.3-0.9,24.6-0.3,36.8c-1,3.7-1.9,7.3-2.9,11l-2,6.8
	c-1.5,0.8-2.4,2.3-2.6,4c-1.8,8.4-6,15.7-10.4,22.9c-1.6,0.9-1.8,2.6-2,4.2c-4.4,5.7-1.8,10.9,0.9,16.2l0,0c1.2,4.2,2.8,8.2,5,12
	l0,0c1.6,3.6,3.8,7,4.8,10.7c2.7,10.2,8,18.9,14.4,27.2c6.3,9.7,14.8,17.4,22.9,25.5c0.8,0.7,1.7,1.1,2.6,1.3
	c6,1.4,11.9,2.8,18.1,2.3c2.3,1.1,4.8,0.9,7.3,0.9l1.5,0.2c1.7,1.1,3.6,0.9,5.5,0.8l0.4,0.2l0.4-0.2c0.8,0.3,1.5,0.5,2.3,0.7
	c10.8,2.1,21.7,0.3,32.6,0.9c3.7,0.3,7.3-1.5,9.3-4.6c1.1-0.9,1-2,0.7-3.2c0.1-1.7,0.3-3.4-0.8-4.9c0-1.4,0.2-2.9-1-4.1
	c-1.5-1.7,0-4.4-1.8-6l-0.4-0.9c-0.5-1.3-0.5-2.8-1.8-3.7c-0.7-0.5-0.8-1.3-1-2.2c-2.8-12-8.5-22.7-15-33c-2.7-3.6-4.6-7.8-7.9-11
	c-1.1-4.2-3.7-7.5-5.8-11.2c-0.7-2.4-1.8-4.7-3.2-6.8c-0.1-1.8,0.2-3.6-0.9-5.2c-0.2-4-0.2-8.1-2-11.9c-0.7-3.6-1.4-7.3-2-10.9
	c0.2-3.1-2.6-5.6-2-8.8c1.1-1.9,1.5-4.2,3.9-5.2c4.3-0.2,8.4-1.6,12-3.9l0,0c2.4,0.1,3.3-2.1,4.9-3.1l0,0c4.5-1.3,2.9-5,3-7.9l0,0
	c0.3-7.7,1.8-15.3,0.9-23c0-2.6,0-5.2,0-7.8c0.8-2.2-1.2-3.9-0.9-6l0,0c0.1-2.8,0-5.5-0.4-8.3c-1.1-7.2-1.7-14.5-2.5-21.7
	c0.2-5-0.2-10.1,1.7-15c0.9-2.5,0.7-5.6,0.2-8.3c-0.4-2.2-1.1,0.4-1.8,0.3c0-2.7-0.1-5.3-0.1-7.9l0,0c-0.2-7.1,0.4-14.1,2-21l1-2.1
	c2.1-4.5,5.5-8.5,5.1-13.9l0,0c1.4-3.2,1.4-6.6,2.2-9.9l0,0c1.1-1.1,1.7-2.7,1.6-4.3l0,0c0.3-1.6,0.6-3.2,1-4.8l0,0
	c0.3-1,0.6-2,1-3.1l0,0c0.5-1.6,1.6-3,1.4-4.7c5.2-13.5,7.2-27.6,6.9-42.1c0-5.3,0-10.6,0.1-15.9c0.9-1.6,2.2-3,3.9-3.9l0,0
	c4.1-3,4.4-7.8,5.9-12.1c1.3-1,1.7-2.4,2.2-3.9l0,0l6.8-11.3l0,0c2.4,0.5,4.1-1,6-2c3.9-0.6,6.4-3.5,9.2-5.8c3.5-0.2,7-0.3,9.8-3
	c5.9-2.5,12-5.9,18.2-5.5c10.1,0.7,16.5-3,20.6-11.8c1.1-0.4,1.9-1.4,2.1-2.5l1-1l0,0c2.5-1.8,2.2-4.1,1.4-6.6
	c-0.9-2.8-1.8-5.6-2.7-8.4l0,0c0.1-1,0.1-2,0.2-3c6.4-8.3,12.1-17.1,17.7-26l1.2-1.9l0,0c4.4-4.6,6.7-10.4,9.2-16.1l0,0
	c1.9-2,3.6-4.2,5.3-6.4c4.3-6.7,9.9-12.7,12.5-20.4c0.8-1.3,2-2.4,1.8-4.1l1.5-3.9h0.4l0.3-0.2l0,0c2.6-0.8,1.5-3.7,3-5.1l0,0
	c2.2-2.1,3.6-4.8,4-7.8c8.9-15.2,16.2-31.2,22-47.8c-0.2-0.2-0.5-0.4-0.6-0.6c0.2,0.2,0.5,0.4,0.6,0.6c3.2-4.2,3.9-9.3,5.9-14l0,0
	c1.9-0.2,1.9-1.7,2-3l0,0c2.7-1.1,0.2-6.2,4.6-5.9l0,0c2.1,3.8,1.6,8.8,5.2,12l0,0l1.2,2.8c0.2,1.5,0.9,2.9,1.9,4l0,0
	c1.2,4,3.6,7.5,6.1,10.8c0.2,1.3,0.5,2.6,1.9,3.2l0,0l3.2,5.8c2.5,3.7,3.8,8.3,7.8,11.1l0.3-0.3c0,0.1,0.1,0.2,0.1,0.4l0,0l-0.4-0.1
	c1.8,4.6,5.8,7.7,8.2,11.9c0.6,1.6,1.6,2.9,2.9,4l0,0c2.7,5,4,10.7,7.8,15c0.4,1.7,1.5,3.1,3,4c0.9,3.5,4.5,5,6.3,7.9
	c1.3,2.9,0.3,6,0.7,9c0.1,3.4-0.3,7,0.3,10.3c1.1,6-1.1,12,0.7,17.9c-0.2,3.9-0.2,7.7,3.9,9.9c3.1,3.6,6.8,6.7,11,9
	c0.8,2.4,2.7,4.2,5.2,5l0,0l9,10c0.1,1.6,1.3,2.9,2.9,3.1c1.5,1.8,2.9,3.7,5,4.9l3,3.2c0.1,1.6,0.1,3.2,0.2,4.8l0,0
	c-2.8,4.4-2.4,9.4-2,14.2c0.4,4.3-1.8,8.7,0.8,12.8c1.7,4.1,2.9,8.1-1.2,11.7c-1.1,1-1.1,2.3,0.2,3.4c-1.8,4.8-0.5,9.8-0.6,14.7
	c0,1.5,1.3,2.1,2.8,2.3c0.4,0.7,1.3,1,2.1,0.8c3.1,1.4,6.5,2.2,9.9,2.4c6.9,2,14,2.3,21,2.8c6.9,2,13.7,4.2,21,2
	c5.8-0.2,11.5-1.7,17.2-2.6c1,0.1,2,0,2.9-0.4c5.7,0.8,4.1-4.5,5.9-7l0,0c7.9,0.2,14.5,4.5,21.7,7l8.2,3.7c1.8,1.2,3.8,2,5.9,2.3
	c9.9,1.5,20,1.1,29.9,1c0.9,0.3,1.9,0.5,2.9,0.6c13.7,0.1,27.5,0.4,41.2,0c6.1-0.3,12.1-1.5,17.8-3.7c-0.2-0.2-0.4-0.4-0.5-0.7
	l0.5,0.7c6.7-2.7,14.3-2,20.9-5c3.4,0.1,6.2-1.6,9.2-2.8c2.1,0,3.4-0.9,3.7-3.1C927.5,801.9,925.8,799.2,923.9,796.4z M548.5,431.1
	c-0.2,0.1-0.4,0.2-0.6,0.3c-2,1.5-3.6,3.2-3.8,5.9c-2.4,1.4-3.3,4.2-5.4,5.9c-1.7,0.8-3,1.9-3,4l0,0l0,0l0,0
	c-4.8,1.8-7.6,5.6-10.1,9.8l0,0c-4.4,5.9-7.1,13.1-13,18c-0.6,0.7-1.2,1.5-1.8,2.2c-0.7,0.2-1.2,0.9-1.1,1.6l0,0
	c-3,2.5-5.7,5.4-7.1,9.1c-1.5,0.9-2,2.5-2.9,3.9l0,0c-2.4,0.5-5.1,0.6-4.9,4.1c-5.1,1.8-7.1,6.8-10.9,10.1l0,0
	c-1.3-0.4-2.8,2.3-4-0.2l0,0l-1.2-2.9l0,0c0.4-4.9,0.8-9.9,1.2-14.8l0,0c3.3-9.9,1.6-20.1,1.8-30.1l0,0c0.8-2.5,1.1-5.2,0.9-7.8
	c0-9.7-1.6-19.4-0.8-29.1c1.1-1.1,0.8-2.6,1.1-4c1.2-2.1,2.9-3.8,4.9-5l0,0l1.8-1.1l0,0c3.3-1.2,6.8-0.2,10.1-1l0,0h4
	c0.4,0.1,0.7,0.2,1.1,0.3c0.5,0.1,1,0.1,1.5,0.1c0.8,0,1.6-0.1,2.3-0.2c1,0,2,0,3,0.1c1.4,0.5,2.9,0.5,4.3,0.1
	c1.6,0.1,3.2,0.3,4.8,0.7l1.9,0.1l8.9,5.1c1.7,1.5,3.8,2.6,6,3l0,0l0.4,0.1h0.4h0.1c0,0.1,0,0.1,0,0.2c1.3,2.3,3.4,2.3,5.6,2
	c0.2-0.1,0.4-0.3,0.6-0.5c0,0,0,0,0,0.1l0,0h-0.1l0.2,0.1l0.3,0.4l0.4,0.1c1.7,1,3,2.6,3.8,4.4c-0.1,0.1-0.1,0.2-0.2,0.3
	c-0.3,1,0.1,2.1,0.9,2.8c-0.9,0.1-1.7,0.9-1.6,1.8C548.5,430.9,548.5,431,548.5,431.1z"/>
</svg>
