<svg id="Layer_1" data-name="Layer 1" xmlns="http://www.w3.org/2000/svg" viewBox="0 0 956.5 1216.25">



<defs><style>.cls-1{fill:#727272;}</style></defs>



<path class="cls-1" d="M923.9,796.43c-1-2.77-3.09-4.81-5-6.93-3.1-2.32-6.54-1-9.86-.93h0c-10.91,1.38-21.66-1.58-32.53-1.09a9.9,9.9,0,0,1-4.79-1.06c-9.39-4.57-19.93-5.72-29.41-10h0l-2.11-2h0L838,770.59l-3.71-5.13c-.64-2.94-2.93-4.51-5.12-6.15h0c-.22-1-1-1.23-1.9-1.39h0c.32-3.72-2.27-5.18-5-6.52a2.21,2.21,0,0,0-1-2c-.57-1.49-1.93-2.11-3.15-2.89-.43-1.09-2.32-1.28-1.83-2.94a4.33,4.33,0,0,0,2.09-3h0c5.86-6.14,4.8-15.37-2.28-19.81q-1.93-1.12-3.89-2.23l-.48,0h0c-2.55-1.81-5-1.22-7.52.17h0c-2.94,0-5.95,2.15-8.83-.22.15-2.78-1.92-2.84-4.86-3.91l3.42,4.06h0c.07.91.13,1.82.2,2.73-2.82,1.41-4.91-.31-7.09-1.66h0c-.23-1-1-1.06-1.85-1.15h0c-1.33-2.58-3.69-4.17-5.8-6-3.53-4.17-6.5-8.87-11.25-11.89h0l-.75-1.16-2.19-4c.09-4.31.15-8.6-2.77-12.22h0a.54.54,0,0,0-.17-.66c0-2.53-1.89-4-3-6-.11-3-1.66-5.48-3-8-3.85-9.22-5.92-19.13-10.76-28h0c-1.34-5-4.66-8.61-8-12.22h0c.31-8.82-.82-17.29-6-24.77h0c-.38-1.29-.75-2.58-1.12-3.86a45.31,45.31,0,0,0-12.91-25l-1.94-2.05c-.38-3.26-3.43-4.58-5-6.95h0a34,34,0,0,0-1.37-3.69c-3.39-6.69-6.82-13.38-10.37-20-3.46-6.4-4.68-14-10.18-19.31-1-2.65-2-5.29-3.07-7.94h0l-4-8c-5.53-7.69-8.55-16.66-12.78-25h0c-.79-2.29-1.57-4.59-2.36-6.88h0c.26-2.05-.09-4.22,1.28-6h0c5.61-5.08,11.49-9.94,14.9-17h0c4.83-4.9,6.87-11.61,11-17,.66-1.33,1.33-2.66,2-4a2.11,2.11,0,0,0,1-1.95l1-1a7.35,7.35,0,0,0,3-3h0a3.56,3.56,0,0,0,1-4.09h0c-.06-1.09.14-2.27-1-3l0-1h0c-.71-8.09-6-13.93-11.09-19.13-10.78-11-24.6-18.05-37.55-26.09-6.82-4.23-15.12-5.7-22.2-9.68l-3-1h0l-7-2c-1.13-1.37-2.7-1.71-4.36-2.06-7.43-1.57-14.9-3.05-21.61-6.9a5.73,5.73,0,0,0-3.87-2.08h0c-1.05-1.4-2-2.95-4.06-3h0l-7-2h0l-13-6.8h0c-1.17-.88-1.42-2.64-3-3.12-.35-.95-1.24-.86-2-1.06-2.93-3.29-7.75-3.17-10.91-6h0c-.41-1-1.24-.93-2.09-.77h0a3,3,0,0,0-2.94-2.18c-1.08-2.21-3.05-2-5-1.87h0l-1.86-1.14a3.66,3.66,0,0,0-4.12-1.85h0c-5.32-4.53-10.91-8.61-17.94-10.09-8-2.67-15.67-6.32-24-8.06h0a3.9,3.9,0,0,0-1.19-.8c-7.08-1.76-15.19-1.14-19.63-8.91-.42-.74-2.05-.8-3.13-1.18h0c-1.15-1-2.28-2.08-4-1.91h0c-2.28-.61-4.52-1.53-7-1h0l-9-3.14h0c-3.38-4.11-8.1-5.67-13-6.9-3.33-2.37-6.85-4.29-11-4.85a4,4,0,0,0-2.93-1.22h0a9.75,9.75,0,0,0-7.27-1.74l-2.64-1.26-3-2a5,5,0,0,0-6.05-.84h0a2.72,2.72,0,0,0-2.9-.18h0l.15-3.73h0l3.7-.25,7,.07h0a24.31,24.31,0,0,0,9.73,1.15,3.32,3.32,0,0,0,1.35.39c3.88,1,7.84.66,11.79.37h0c4.1.43,6.38-1.94,8.11-5.22,2.37-4.53,4.92-9,7.14-13.57,1.68-3.48,5.73-5.09,6.77-9a.22.22,0,0,0,.15-.1c1.87-1.09,2.49-2.9,2.72-4.93h0c1.42-1.69.73-3.88,1.38-5.76,5.63-4.42,3.88-10.49,3.64-16.23a1.8,1.8,0,0,0,.17-.85c1.58-3.6,3.91-5.81,8.26-5.2,2.64.36,4.52-1.69,6.65-2.87h0c2.89-.61,2.08-2.37,1.23-4.08-1-2-2.3-4-3.1-6.12-1.59-4.24-1.15-9.28-5.23-12.55-1.07-.85.31-2.15.06-3.26h0l.06-1.93c1.63-2.51.52-5.6,1.75-8.18.11-3.34-2.47-1.34-3.77-1.9,0-.66-.06-1.32-.1-2h0a5.8,5.8,0,0,0-.94-5.91c-.44-10.67,1.49-21.5-2.39-32a11.46,11.46,0,0,1,1.52-10.89h0l1-1h0l1-.93h0l4.88-2h0c6.15-.58,9.6-4.37,11.81-9.79,2.34-5.73,1.88-11.38-.07-17.06h0c-1.21-3-1.85-6.23-4.85-8.12-1.68-.94-2.9-2.66-5-3-1-1.24-2.47-1.19-3.89-1.22h0a37.48,37.48,0,0,0-11.83-2c-1.16-1.35-2.7-.82-4.13-.8h0a10.67,10.67,0,0,1-5.1-1c-6.6-1.47-12.92-4.35-19.89-4h0c-1.66-.73-3.11-2-5.09-1.94l-4.78-1.19h0c-4.26-2-8.74-.45-13.09-.85-8.8-1.29-17-5-25.9-6h0c-.23-1.87-2.19-1.1-3.05-2a4.79,4.79,0,0,0-5.95-.08s-.06,0-.09.06l-1.85-.06h0a12.87,12.87,0,0,0-10.15,0h0c-1.13.12-2.4-.17-3.18,1h0a1.31,1.31,0,0,0-.73.06c-1.85-.36-2.67,1.26-3.92,2.06h0c-1.5,1.18-3.74.26-5.11,1.81l-1.83,1.33c-1.49-.3-2.79-.23-3.23,1.59h0l-4,5.09a2.09,2.09,0,0,0-1.13,1.86,6.84,6.84,0,0,0-2.72,4.31h0c-5.81,3-9.94,7.91-13.9,13l-6.33,9.75a16,16,0,0,0-5.82,7.17,71.31,71.31,0,0,0-4.33,6c-3.3,5.66-7.64,10.92-7.6,18a.52.52,0,0,0-.1.79c-1.51,5.68-.91,11.45-.75,17.21-.74,11.6.55,23.13,1.54,34.65.42,4.88.52,9.9,3.32,14.25q3.46,11.49,6.92,23c1.46,6,.15,11.63-2.93,16.9l-2.1,2.84h0a5.05,5.05,0,0,0-2.17,4h0L290,254l-1.86,2.25a6.59,6.59,0,0,0-4,2.14l-6.9,4.24c-4.22,4.2-10.09,6.22-14.07,10.73l-2.36,1.88c-1.88.14-2.69,1.66-3.69,2.92l-3.87,3.23-8.1,5.71h0a38.91,38.91,0,0,0-15.92,10.22h0a31.82,31.82,0,0,0-8.29,8.86,10.8,10.8,0,0,0-3.68,4c-6.4,6.94-15.06,11.86-18.88,21.11-2.81,5.76-7.51,10.51-9,17-2.17,4-2.55,8.49-3.39,12.85a.75.75,0,0,0-.47,1.13c0,1.43-1.68,2.42-1,4-2.07,6-2.79,12.23-3.62,18.41-1.45,10.9-6.6,21.17-5.48,32.49-1.18,4.82-2.52,9.68-1.9,14.69,2.15,17.18,2.32,34.56,7.41,51.45,3.79,12.59,4,26.12,8.39,38.68,2.74,3.54,2.57,8.32,5.06,12,.07,2.46-.26,5,.86,7.31h0c.07,1.55.15,3.1.22,4.66,0,.66,0,1.33,0,2a8.91,8.91,0,0,0,1.82,6.07c1.28,4.46-.35,8.74-.6,13.1-.91,15.49-3.55,31-1.47,46.56.53,3.92,1.07,8.07-1.06,11.69-5.35,9.08-.83,16.73,4.05,23.68,3,4.33,3.85,8.25,2.59,12.92a35.23,35.23,0,0,1-6.07,11.84c-2.24,3-4.7,6-5.36,9.9h0l-4.08,8.84a2.28,2.28,0,0,0-.39,3.48c4.75,4.12,3.32,9.54,3.54,14.68s1.56,9.65,5.64,13c.42,1.44.48,3.1,2.29,3.67,5.67,3.55,6.11,10.4,9.63,15.32.28,2.5.3,5.09,2.21,7.09h0c.78,4.29,2.87,8,4.92,11.8,1,3.12,1.15,6.64,4.19,8.77,4.76,5.56,8.64,11.92,14.93,16a76.48,76.48,0,0,0,14.91,9.08c1,1.35,2.46,1.86,3.91,2.42h0c7.33,4,14.85,7.58,23,9.62l22,5.86,1.8.16c1.93,1.74,1.44,4.12,1,6.08-1.49,7.18-1.54,14.44-1.83,21.72-.55,14,1.8,27.8,2.16,41.73.18,7.13-.09,14.24.44,21.38,1.28,17.52,4.18,34.92,3.49,52.61-.24,6.34,1.16,12.75,1.81,19.13q.06,9.47.13,18.91l0,1a323.4,323.4,0,0,0-.3,36.84q-1.44,5.5-2.87,11l-2,6.82a5.28,5.28,0,0,0-2.6,4c-1.78,8.41-6,15.67-10.42,22.86-1.62.94-1.84,2.55-2,4.19-4.39,5.66-1.83,10.93.92,16.19h0a53.82,53.82,0,0,0,4.95,12h0c1.65,3.55,3.84,7,4.84,10.69,2.73,10.21,8.05,18.94,14.38,27.18,6.33,9.65,14.75,17.42,22.86,25.47a5.71,5.71,0,0,0,2.64,1.3c6,1.38,11.93,2.82,18.14,2.27,2.32,1.12,4.81.91,7.27.86l1.5.18c1.7,1.13,3.61.89,5.48.85l.37.24.41-.15a21,21,0,0,0,2.33.74c10.81,2.13,21.74.29,32.6.9a10.08,10.08,0,0,0,9.31-4.59c1.06-.88,1-2,.72-3.2.13-1.71.26-3.42-.81-4.94,0-1.44.23-2.92-1-4.07-1.53-1.71,0-4.36-1.83-6l-.42-.92c-.55-1.26-.46-2.83-1.8-3.71-.73-.54-.76-1.35-.95-2.16-2.81-12-8.47-22.71-15-33-2.72-3.63-4.64-7.82-7.92-11-1.11-4.16-3.73-7.54-5.79-11.21a23.76,23.76,0,0,0-3.24-6.75c-.1-1.75.22-3.58-.9-5.15-.22-4-.18-8.14-2-11.93q-1-5.44-2.05-10.89c.17-3.14-2.61-5.61-2-8.84,1.09-1.88,1.55-4.24,3.9-5.17a24.17,24.17,0,0,0,12-3.91h0c2.38.12,3.26-2.14,4.93-3.13h0c4.47-1.34,2.85-5,3-7.92h0c.3-7.68,1.83-15.31.88-23,0-2.59,0-5.17,0-7.76.75-2.18-1.19-3.94-.94-6h0a48.24,48.24,0,0,0-.4-8.3c-1.09-7.19-1.73-14.45-2.55-21.68.25-5-.18-10.06,1.7-15,.94-2.46.68-5.58.23-8.28-.36-2.15-1.1.42-1.78.29q-.06-4-.13-7.94h0a81.94,81.94,0,0,1,2-21l1-2.07c2.11-4.48,5.55-8.46,5.15-13.87h0c1.4-3.16,1.44-6.61,2.16-9.91h0a5.62,5.62,0,0,0,1.62-4.29h0c.32-1.6.65-3.21,1-4.82h0c.32-1,.64-2,1-3.06h0c.52-1.56,1.61-2.95,1.37-4.73,5.21-13.55,7.17-27.63,6.92-42.08q0-7.94.07-15.86a9.46,9.46,0,0,1,3.88-3.87h0c4.08-3,4.43-7.84,5.94-12.11,1.32-1,1.71-2.43,2.16-3.86h0l6.76-11.26h0c2.39.46,4.13-1,6-2,3.91-.6,6.38-3.5,9.2-5.82,3.51-.18,7-.35,9.75-3,5.93-2.46,12-5.89,18.25-5.49,10.06.65,16.53-3,20.64-11.8a3.57,3.57,0,0,0,2.12-2.53l1-1h0c2.54-1.76,2.25-4.14,1.44-6.63-.91-2.81-1.83-5.62-2.74-8.43h0c.08-1,.15-2,.23-2.95,6.44-8.31,12.15-17.13,17.73-26l1.22-1.86h0c4.42-4.58,6.65-10.42,9.24-16.06h0a69.62,69.62,0,0,0,5.26-6.43c4.33-6.71,9.91-12.66,12.49-20.43.78-1.29,2-2.42,1.75-4.12l1.47-3.89.37,0,.3-.2h0c2.56-.78,1.48-3.68,3-5.07h0a12.73,12.73,0,0,0,4-7.83,275.52,275.52,0,0,0,22.05-47.8c-.24-.24-.45-.44-.64-.61a2.91,2.91,0,0,1,.64.61c3.15-4.17,3.92-9.35,5.93-14h0c1.9-.2,1.88-1.67,2-3h0c2.66-1.09.15-6.23,4.62-5.91h0c2.1,3.84,1.64,8.78,5.15,12h0l1.16,2.82a7.28,7.28,0,0,0,1.9,4.05h0c1.23,4,3.59,7.46,6.06,10.81.24,1.3.51,2.58,1.86,3.24h0l3.21,5.77c2.54,3.72,3.84,8.31,7.76,11.07l.29-.3a2.47,2.47,0,0,1,.11.36h0l-.4-.06c1.81,4.61,5.85,7.68,8.23,11.89a9.79,9.79,0,0,0,2.91,4h0c2.65,5,4,10.68,7.84,15a6.44,6.44,0,0,0,3,4c.94,3.55,4.47,5,6.29,7.86,1.31,2.92.32,6,.72,9,.07,3.43-.3,7,.3,10.29,1.08,6-1.14,12,.65,17.87-.2,3.9-.24,7.74,3.94,9.9a39.83,39.83,0,0,0,11,9,7.75,7.75,0,0,0,5.15,4.95h0l9,10a3.35,3.35,0,0,0,2.91,3.08c1.47,1.83,2.88,3.73,5,4.88l3,3.15c.07,1.59.13,3.18.19,4.77h0c-2.85,4.42-2.43,9.36-2,14.18.42,4.28-1.8,8.72.79,12.85,1.7,4.11,2.91,8.13-1.25,11.68-1.11.95-1.06,2.29.15,3.36-1.79,4.82-.54,9.77-.61,14.66,0,1.49,1.32,2.13,2.75,2.28a1.78,1.78,0,0,0,2.08.79,28.94,28.94,0,0,0,9.87,2.36c6.87,2,14,2.27,21,2.78,6.88,2,13.74,4.17,21,2,5.84-.16,11.47-1.7,17.2-2.58a6,6,0,0,0,2.94-.39c5.74.83,4.1-4.54,5.89-7h0c7.93.18,14.51,4.55,21.72,7l8.15,3.74a14.6,14.6,0,0,0,5.93,2.26c9.94,1.5,20,1.1,29.94,1a14,14,0,0,0,2.86.63c13.74.08,27.48.43,41.21,0a57.13,57.13,0,0,0,17.8-3.73,4.12,4.12,0,0,1-.53-.69l.53.69c6.74-2.69,14.3-2,20.94-5,3.39.09,6.24-1.61,9.24-2.81,2.07,0,3.43-.92,3.67-3.12C927.49,801.91,925.8,799.15,923.9,796.43ZM548.51,431.09a3,3,0,0,1-.57.27c-2,1.49-3.62,3.24-3.78,5.9-2.42,1.35-3.29,4.18-5.37,5.87-1.73.77-3,1.85-3,4h0v0h0c-4.77,1.83-7.63,5.64-10.12,9.82h0c-4.42,5.93-7.14,13.08-13,18-.61.73-1.22,1.47-1.84,2.2a1.58,1.58,0,0,0-1.11,1.61h0c-3,2.55-5.7,5.36-7.14,9.15-1.45.93-2,2.51-2.87,3.89h0c-2.36.52-5.11.59-4.91,4.14-5.12,1.75-7.14,6.84-10.85,10.1h0c-1.3-.39-2.77,2.26-4-.2h0l-1.25-2.91h0q.62-7.39,1.22-14.8h0c3.26-9.89,1.63-20.06,1.8-30.13h0a22.37,22.37,0,0,0,.92-7.8c0-9.69-1.58-19.35-.77-29.06,1.07-1.13.84-2.63,1.12-4a13.84,13.84,0,0,1,4.9-5h0l1.82-1.14h0c3.29-1.19,6.79-.23,10.12-1h0l4,0a11.5,11.5,0,0,0,1.13.26,7,7,0,0,0,1.45.1,12.23,12.23,0,0,0,2.34-.25c1,0,2,.05,3,.06a6.81,6.81,0,0,0,4.29.12,23.58,23.58,0,0,1,4.77.7l1.93.09,8.89,5.13a12.41,12.41,0,0,0,6,3h0l.36.13.38,0,.11,0a.51.51,0,0,0,0,.21c1.28,2.31,3.42,2.28,5.63,2a2.09,2.09,0,0,0,.59-.55s0,.05,0,.08l0,0-.07,0,.18.12.3.37.41.08a10.12,10.12,0,0,1,3.85,4.36,2.11,2.11,0,0,0-.2.29,2.51,2.51,0,0,0,.94,2.76A1.72,1.72,0,0,0,548.51,431.09Z"/></svg>