<?xml version="1.0" encoding="utf-8"?>
<!-- Generator: Adobe Illustrator 24.3.0, SVG Export Plug-In . SVG Version: 6.00 Build 0)  -->
<svg version="1.1" id="Layer_1" xmlns="http://www.w3.org/2000/svg" xmlns:xlink="http://www.w3.org/1999/xlink" x="0px" y="0px"
	 viewBox="0 0 1917 995" style="enable-background:new 0 0 1917 995;" xml:space="preserve">
<style type="text/css">
	.st0{fill:#FFFFFF;}
	.st1{enable-background:new    ;}
	.st2{fill:#FF5D5D;}
</style>
<rect x="0.5" y="0.5" class="st0" width="1916" height="994"/>
<g class="st1">
	<path class="st2" d="M559.9,422.9h28v111.4h61.6v24.6h-89.6V422.9z"/>
</g>
<g class="st1">
	<path class="st2" d="M661.6,516.5c0-26,20.6-44.6,47-44.6s46.8,18.6,46.8,44.6c0,25.8-20.4,44.2-46.8,44.2S661.6,542.3,661.6,516.5
		z M727.7,516.5c0-12.8-7.2-21.4-19.2-21.4s-19.4,8.6-19.4,21.4c0,12.6,7.4,21.4,19.4,21.4S727.7,529.1,727.7,516.5z"/>
</g>
<g class="st1">
	<path class="st2" d="M808.5,494.1c-10.2,0-15.6,4.4-19.4,7.8l-15-16c8-7.8,17-14,37-14c21.8,0,38.4,11.8,38.4,38.6v48.4h-26.8
		l0.6-11.8c-6.4,9.8-13.8,13.6-25.2,13.6c-15.6,0-30-7-30-26.8c0-18.2,13.8-25.6,34.8-25.6h19.8
		C822.3,498.5,817.5,494.1,808.5,494.1z M804.3,524.3c-6.8,0-9.8,3-9.8,7.8s4,7.6,11.6,7.6c11,0,16.6-4.8,16.6-12v-3.4L804.3,524.3
		L804.3,524.3z"/>
	<path class="st2" d="M867.3,516.1c0-26.2,17.6-44.2,38.2-44.2c13.6,0,21.2,5.4,26.6,13.8v-71.2h27v144.4h-27l0.6-12.4
		c-4.8,9-13.8,14.2-26.8,14.2C885.1,560.7,867.3,542.3,867.3,516.1z M932.9,516.1c0-12.6-7.6-20.4-19.2-20.4
		c-11.4,0-18.6,7.8-18.6,20.4c0,13.4,7.2,21,18.6,21C925.3,537.1,932.9,529.5,932.9,516.1z"/>
	<path class="st2" d="M977.7,442.5c0-9.8,8-16.8,17.2-16.8s17,7,17,16.8c0,10-7.8,17-17,17S977.7,452.5,977.7,442.5z M981.3,473.7
		h27v85.2h-27V473.7z"/>
</g>
<g class="st1">
	<path class="st2" d="M1030.5,473.7h27l-0.6,14c5.2-10.2,15.2-15.8,27-15.8c18.6,0,32,13.6,32,37.8v49.2h-27v-47.4
		c0-9.6-4.6-15-14.2-15c-10.8,0-17.2,6-17.2,16.8v45.6h-27L1030.5,473.7L1030.5,473.7z"/>
</g>
<g class="st1">
	<path class="st2" d="M1218.3,473.5v19.2h-12.6c2,3,3,6.6,3,10.4c0,18.2-14,31.6-35.8,31.6c-6.8,0-12.6-1-17.4-3.4
		c-1.4,1.2-2.2,3-2.2,5.2c0,4,2.6,6.6,8.8,6.8l21,1c23.2,1.2,36.4,10.8,36.4,27.4c0,18-13.2,31.6-47,31.6c-30.6,0-45.8-11.8-45.8-28
		c0-9.2,6-15.2,15.6-18.8c-7-3.8-10.2-9.4-10.2-17.2c0-7.6,4.2-13.4,11.8-16.8c-4.8-5.2-7.6-12-7.6-19.4c0-18.2,14.8-31.2,36.6-31.2
		c4.6,0,8.8,0.6,12.6,1.6H1218.3z M1152.9,571.9c0,6.8,4.8,11.2,19.6,11.2c15.8,0,19.4-4.2,19.4-9.4c0-4.8-3.2-6.4-14.2-7l-22.4-1.4
		C1153.7,567.1,1152.9,569.3,1152.9,571.9z M1185.1,503.1c0-6.8-4.4-11.4-12.6-11.4s-12.6,4.6-12.6,11.4c0,7.2,4.4,12,12.6,12
		S1185.1,510.3,1185.1,503.1z"/>
	<path class="st2" d="M1230.3,543.1c0-9.8,7.8-16.8,17-16.8c9,0,16.8,7,16.8,16.8c0,10-7.8,17-16.8,17
		C1238.1,560.1,1230.3,553.1,1230.3,543.1z"/>
	<path class="st2" d="M1280.1,543.1c0-9.8,7.8-16.8,17-16.8c9,0,16.8,7,16.8,16.8c0,10-7.8,17-16.8,17
		C1287.9,560.1,1280.1,553.1,1280.1,543.1z"/>
	<path class="st2" d="M1329.9,543.1c0-9.8,7.8-16.8,17-16.8c9,0,16.8,7,16.8,16.8c0,10-7.8,17-16.8,17
		C1337.7,560.1,1329.9,553.1,1329.9,543.1z"/>
</g>
</svg>
