<?xml version="1.0" standalone="no"?>
<!DOCTYPE svg PUBLIC "-//W3C//DTD SVG 20010904//EN"
 "http://www.w3.org/TR/2001/REC-SVG-20010904/DTD/svg10.dtd">
<svg version="1.0" xmlns="http://www.w3.org/2000/svg"
 width="700.000000pt" height="700.000000pt" viewBox="0 0 700.000000 700.000000"
 preserveAspectRatio="xMidYMid meet">
<metadata>
Created by potrace 1.11, written by Peter Selinger 2001-2013
</metadata>
<g transform="translate(0.000000,700.000000) scale(0.100000,-0.100000)"
fill="#000000" stroke="none">
<path d="M1111 6984 c-548 -92 -1006 -554 -1096 -1104 -13 -84 -15 -371 -15
-2381 0 -2535 -4 -2365 66 -2579 156 -472 571 -826 1059 -905 90 -14 322 -16
2420 -13 l2320 4 86 22 c253 64 454 173 632 341 212 202 352 465 402 755 13
78 15 371 15 2376 0 2533 4 2367 -65 2577 -134 404 -451 722 -855 857 -210 70
-46 66 -2590 65 -1924 -1 -2309 -3 -2379 -15z m1716 -2986 c-3 -1464 -3 -1484
-24 -1573 -57 -247 -139 -409 -282 -559 -159 -166 -342 -264 -593 -317 -88
-19 -135 -23 -328 -23 -245 -1 -341 13 -502 70 -374 133 -678 440 -785 789
-27 89 -27 94 -31 423 l-3 332 442 0 442 0 -5 -127 c-4 -71 -3 -178 2 -240 6
-93 12 -121 38 -177 36 -77 104 -149 170 -179 40 -19 64 -22 167 -22 66 1 139
6 163 13 61 18 117 72 144 140 l23 57 3 963 2 962 -570 0 -570 0 0 475 0 475
1050 0 1051 0 -4 -1482z m1513 792 c0 -379 3 -690 8 -689 4 0 257 311 562 690
l555 689 553 0 c415 0 551 -3 546 -12 -4 -6 -300 -403 -658 -882 -357 -479
-650 -878 -650 -886 0 -8 103 -164 229 -345 126 -182 452 -652 725 -1045 273
-393 499 -721 504 -727 6 -10 -111 -13 -572 -13 l-579 0 -478 700 c-370 540
-482 697 -492 689 -7 -6 -67 -75 -133 -154 l-120 -143 0 -546 0 -546 -480 0
-480 0 0 1955 0 1955 480 0 480 0 0 -690z"/>
</g>
</svg>
