<svg id="Layer_1" data-name="Layer 1" xmlns="http://www.w3.org/2000/svg" viewBox="0 0 988 988"><defs><style>.cls-1{fill:#ff5d5d;}</style></defs><path class="cls-1" d="M980,205.67l40-40-40-40L866.83,12.5l-40,40L526,353.32,225.17,52.49l-40-40-40,40L72,125.68l-40,40L372.83,506.5h0L72,807.33l-40,40L145.18,960.5l40,40,40-40L526,659.67,826.83,960.5l40,40,40-40L980,887.32l40-40L679.18,506.5ZM866.83,920.51,526,579.68l-40,40L185.18,920.51,112,847.32,412.82,546.49l40-40-40-40L112,165.67l73.19-73.18L486,393.32l40,40,40-40L866.83,92.49,940,165.67,639.18,466.5l-40,40,40,40L940,847.32Z" transform="translate(-32 -12.5)"/></svg>